<svg id="Layer_1" data-name="Layer 1" xmlns="http://www.w3.org/2000/svg" viewBox="0 0 172 172"><defs><style>.cls-1{fill:#ff9827;}.cls-2{fill:#44cc98;}.cls-3{fill:#ff4343;}.cls-4{fill:#e02828;}.cls-5{fill:none;}</style></defs><title>contact page icons-06</title><path class="cls-1" d="M81.1,74.77h90.82s1.86-10.18-12-9.61c0,0,2.58-9.32-5.07-12.87-9-4.19-13.88,1-13.88,1s2.94-7.11-8.27-12.95-19.48,8-19.48,8-3.74-4.76-12.28-1.14-5.87,13.84-5.87,13.84S86,58.43,84.92,66.6c0,0-5.36-1.57-7.3,1.71A4.32,4.32,0,0,0,81.1,74.77Z"/><ellipse class="cls-2" cx="79.22" cy="160.95" rx="36.41" ry="9.65"/><path class="cls-3" d="M83.6,1.4C48,1.82,23.73,23.9,23.28,59.55c-.67,53,58.3,87.66,75,96.39a6.42,6.42,0,0,0,7.7-1.31c10.35-11.18,41-47.74,40.5-87.8C146,31.18,119.25,1,83.6,1.4Zm4.74,86.81c-12.91.14-24.4-10-26.33-22.89-.08-.5-.14-1-.18-1.51-1.24-13.61,8.62-24.76,22-24.9h.27c.4,0,.8,0,1.2,0h0c.36,0,.72,0,1.08.08h.16l1,.13.18,0c.35.05.71.11,1.06.18s.77.16,1.15.26l.18,0,.86.23.89.28.53.18.73.28.44.17a5.62,5.62,0,0,1,.56.25c.19.07.37.16.56.25l.56.27c.18.08.35.17.52.26l.57.3.49.29a27.51,27.51,0,0,1,2.53,1.66l.41.31.6.48c.3.24.58.48.87.74s.59.54.88.82.44.43.66.66.49.52.73.79c.1.11.19.22.29.32.49.58,1,1.18,1.42,1.79.23.32.46.64.68,1s.39.61.58.92.53.89.77,1.34c.13.25.27.5.39.76l.07.13.45,1c.05.11.1.24.15.36s.21.51.31.76l.15.39c.09.26.19.52.27.77s.21.66.31,1c.14.48.26,1,.38,1.44s.14.66.21,1c0,0,0,.06,0,.1.07.38.14.76.19,1.15,0,0,0,0,0,.05,0,.4.1.8.14,1.21C111.61,76.91,101.74,88.07,88.34,88.21Z"/><path class="cls-4" d="M109.64,59.44A30.69,30.69,0,0,0,85.19,47.23,25.34,25.34,0,0,0,61.72,62.59c-.08-.49-.14-1-.19-1.47a21.88,21.88,0,0,1,21.9-24.33h.27c.39,0,.8,0,1.19,0h0L86,36.9h.17l1,.13a.52.52,0,0,1,.18,0c.36,0,.71.11,1.06.18s.76.15,1.14.25l.18,0c.28.07.57.14.86.23l.88.27.53.17.72.27c.15.06.3.11.44.18a5.48,5.48,0,0,1,.56.23l.55.24.57.27.51.26.56.29.49.28a25,25,0,0,1,2.51,1.63l.41.3.6.47.87.72.87.8c.22.21.44.42.65.64s.5.51.74.78l.27.31c.5.56,1,1.15,1.42,1.75.23.31.46.62.67.95s.4.59.58.9.53.86.77,1.3l.39.74a.54.54,0,0,0,.07.13c.14.31.3.63.44.94l.15.36c.11.25.21.5.31.75l.15.38.27.75c.11.32.21.64.31,1s.25.93.37,1.4c.08.32.14.64.21,1,0,0,0,.06,0,.09.07.37.14.75.19,1.13A.43.43,0,0,1,109.64,59.44Z"/><path class="cls-1" d="M.31,124h98.4s.84-22.89-28.93-22.89c0,0,.78-12.77-21.08-14.35a24.08,24.08,0,0,0-13.89,3.07c-5.21,3-10.46,8.8-9.36,19.67C25.45,109.54-2.31,99.15.31,124Z"/><rect class="cls-5" y="1.4" width="172" height="172"/></svg>